<?xml version="1.0" standalone="no"?>
<!DOCTYPE svg PUBLIC "-//W3C//DTD SVG 20010904//EN"
 "http://www.w3.org/TR/2001/REC-SVG-20010904/DTD/svg10.dtd">
<svg version="1.0" xmlns="http://www.w3.org/2000/svg"
 width="60" height="60" viewBox="0 0 363.000000 285.000000"
 preserveAspectRatio="xMidYMid meet">

<g transform="translate(0.000000,285.000000) scale(0.100000,-0.100000)"
fill="#000000" stroke="none">
<path d="M1605 2386 c-482 -75 -845 -502 -845 -991 0 -487 346 -896 829 -980
605 -106 1171 373 1171 990 0 614 -544 1076 -1155 981z m250 -91 c48 -47 28
-92 -58 -134 -26 -13 -57 -36 -68 -53 l-22 -30 -12 23 c-25 48 -28 89 -10 130
14 30 15 42 6 53 -18 22 13 35 82 36 48 0 62 -4 82 -25z m-229 -20 c19 -15 19
-15 -5 -35 -13 -11 -31 -20 -40 -20 -41 0 -98 -25 -129 -56 -49 -49 -21 -76
37 -35 17 12 36 18 49 14 18 -4 22 -1 22 16 0 24 1 25 34 9 31 -14 41 -40 26
-68 -8 -16 -8 -25 0 -35 9 -11 7 -18 -9 -34 -17 -17 -29 -20 -65 -15 -39 6
-52 2 -93 -24 -33 -21 -67 -34 -105 -38 -67 -8 -116 -42 -133 -94 l-11 -34
-47 48 -46 48 -50 -47 c-55 -51 -69 -95 -32 -95 28 0 36 -18 21 -45 -11 -21
-9 -32 14 -80 20 -43 34 -59 61 -71 42 -17 40 -17 60 2 22 23 58 11 110 -37
27 -25 57 -42 79 -46 28 -4 41 -15 71 -60 20 -30 67 -84 105 -121 85 -83 94
-110 50 -150 -18 -17 -44 -51 -59 -77 -18 -31 -49 -63 -87 -89 -42 -30 -67
-57 -88 -95 -18 -33 -46 -65 -77 -88 -52 -37 -57 -48 -61 -127 l-3 -50 -58 79
c-53 72 -58 83 -52 115 4 19 7 37 8 40 0 3 -3 25 -7 50 -6 35 -3 57 14 99 19
48 19 55 5 71 -8 9 -15 32 -15 51 0 27 -8 43 -39 71 -24 24 -42 52 -49 80 -24
89 -19 120 23 162 19 20 35 41 35 48 -1 29 -27 68 -59 90 -20 13 -39 38 -46
58 -14 40 -58 107 -81 125 -15 10 -14 15 6 56 66 128 178 258 294 337 102 71
148 92 203 93 26 0 71 4 98 9 79 12 100 11 121 -5z m774 -162 c133 -119 248
-313 292 -488 31 -126 31 -322 -1 -450 -25 -103 -100 -263 -162 -345 -69 -92
-216 -188 -303 -197 -77 -9 -94 23 -55 107 12 25 25 79 30 120 8 69 11 77 44
103 38 31 41 44 23 93 -8 24 -9 42 -1 67 6 19 8 57 5 85 -4 48 -6 52 -44 66
-25 11 -52 14 -78 10 -33 -5 -47 -2 -79 19 -107 71 -129 109 -96 167 8 14 14
47 15 74 0 44 4 53 38 85 21 20 41 44 45 54 9 23 38 33 122 41 63 6 74 4 114
-19 25 -14 54 -25 66 -23 11 1 35 -8 54 -21 37 -27 57 -18 47 22 -6 24 -20 33
-121 78 -11 5 -29 8 -40 6 -12 -1 -24 8 -33 26 -16 34 -35 34 -56 2 -17 -25
-50 -33 -61 -15 -3 6 -17 10 -30 10 -15 0 -31 10 -40 24 -22 33 -6 62 37 71
47 10 68 33 68 72 0 25 -4 33 -18 33 -10 0 -25 9 -35 20 -9 11 -23 20 -31 20
-15 0 -26 21 -26 49 0 30 43 61 86 63 21 1 61 9 89 19 57 20 61 19 135 -48z
m-524 12 c-6 -22 -11 -26 -39 -23 -44 4 -46 30 -5 50 39 19 53 10 44 -27z
m243 -120 c45 -49 52 -80 20 -88 -32 -9 -49 3 -49 33 0 23 -4 27 -19 23 -24
-6 -36 13 -21 32 7 8 10 22 6 30 -11 30 22 14 63 -30z m-924 -225 c3 -5 19
-10 36 -10 31 0 41 -23 13 -34 -23 -9 -87 -7 -102 3 -12 7 -12 12 -1 30 14 22
43 28 54 11z m124 -82 c11 -28 -3 -46 -23 -29 -7 6 -19 10 -26 9 -23 -6 -22
22 2 31 34 14 38 13 47 -11z m284 -1119 c87 -30 94 -31 158 -20 86 14 179 14
216 0 47 -18 98 -61 82 -69 -51 -27 -173 -45 -304 -45 -151 1 -244 18 -361 70
-62 28 -64 39 -14 73 47 32 112 29 223 -9z"/>
<path d="M2935 2382 c-98 -60 -184 -279 -172 -436 7 -98 37 -169 102 -246 31
-36 58 -76 62 -88 12 -50 -5 -814 -21 -917 -18 -118 -20 -218 -5 -247 6 -11
26 -26 46 -34 31 -14 38 -13 71 3 67 33 69 49 36 312 -15 123 -32 828 -21 873
4 15 30 55 58 90 77 94 102 156 107 258 7 151 -46 307 -137 401 -52 54 -77 60
-126 31z m-90 -542 c15 -30 36 -68 47 -83 32 -45 14 -42 -25 4 -36 41 -60 99
-71 169 l-6 35 14 -35 c7 -20 26 -60 41 -90z"/>
<path d="M456 2358 c-11 -52 -28 -482 -21 -534 5 -44 14 -63 46 -100 21 -25
44 -55 50 -67 19 -35 -2 -536 -41 -957 -17 -192 -17 -207 -2 -240 21 -42 53
-60 110 -60 37 0 50 6 78 34 20 20 34 44 34 58 0 13 -9 124 -19 248 -22 247
-40 572 -44 777 -2 143 -8 124 67 217 44 56 48 160 18 546 -6 75 -10 95 -23
98 -21 4 -29 -59 -29 -220 0 -65 -4 -118 -8 -118 -5 0 -12 73 -16 162 -4 90
-11 167 -16 172 -19 19 -30 -8 -30 -72 0 -111 -12 -262 -22 -262 -4 0 -8 71
-8 158 0 160 -6 190 -34 179 -14 -6 -16 -29 -16 -166 0 -96 -4 -162 -10 -166
-12 -7 -11 -15 -19 180 -5 131 -8 150 -23 153 -11 2 -19 -5 -22 -20z"/>
</g>
</svg>
